<svg version="1.1" viewBox="0.0 0.0 771.4251968503937 701.5354330708661" fill="none" stroke="none" stroke-linecap="square" stroke-miterlimit="10" xmlns:xlink="http://www.w3.org/1999/xlink" xmlns="http://www.w3.org/2000/svg"><clipPath id="p.0"><path d="m0 0l771.4252 0l0 701.53546l-771.4252 0l0 -701.53546z" clip-rule="nonzero"/></clipPath><g clip-path="url(#p.0)"><path fill="#000000" fill-opacity="0.0" d="m0 0l771.4252 0l0 701.53546l-771.4252 0z" fill-rule="evenodd"/><path fill="#ffffff" d="m0 0l776.0 0l0 704.0l-776.0 0z" fill-rule="evenodd"/><path fill="#000000" d="m70.115486 66.767715l40.0 0l0 568.0l-40.0 0z" fill-rule="evenodd"/><path stroke="#000000" stroke-width="1.0" stroke-linejoin="round" stroke-linecap="butt" d="m70.115486 66.767715l40.0 0l0 568.0l-40.0 0z" fill-rule="evenodd"/><path fill="#000000" d="m150.11548 66.767715l40.0 0l0 568.0l-40.0 0z" fill-rule="evenodd"/><path stroke="#000000" stroke-width="1.0" stroke-linejoin="round" stroke-linecap="butt" d="m150.11548 66.767715l40.0 0l0 568.0l-40.0 0z" fill-rule="evenodd"/><path fill="#000000" d="m432.0 370.76773l0 40.0l-352.0 0l0 -40.0z" fill-rule="evenodd"/><path stroke="#000000" stroke-width="1.0" stroke-linejoin="round" stroke-linecap="butt" d="m432.0 370.76773l0 40.0l-352.0 0l0 -40.0z" fill-rule="evenodd"/><path fill="#000000" d="m638.1155 290.76773l0 40.0l-558.1102 0l0 -40.0z" fill-rule="evenodd"/><path stroke="#000000" stroke-width="1.0" stroke-linejoin="round" stroke-linecap="butt" d="m638.1155 290.76773l0 40.0l-558.1102 0l0 -40.0z" fill-rule="evenodd"/><path fill="#000000" d="m478.11548 66.767715l40.0 0l0 568.0l-40.0 0z" fill-rule="evenodd"/><path stroke="#000000" stroke-width="1.0" stroke-linejoin="round" stroke-linecap="butt" d="m478.11548 66.767715l40.0 0l0 568.0l-40.0 0z" fill-rule="evenodd"/><path fill="#000000" d="m398.11548 66.767715l40.0 0l0 568.0l-40.0 0z" fill-rule="evenodd"/><path stroke="#000000" stroke-width="1.0" stroke-linejoin="round" stroke-linecap="butt" d="m398.11548 66.767715l40.0 0l0 568.0l-40.0 0z" fill-rule="evenodd"/><path fill="#ffffff" d="m312.0 289.31866l0 -9.322815l184.0 0l0 9.322815z" fill-rule="evenodd"/><path stroke="#ffffff" stroke-width="1.0" stroke-linejoin="round" stroke-linecap="butt" d="m312.0 289.31866l0 -9.322815l184.0 0l0 9.322815z" fill-rule="evenodd"/><path fill="#ffffff" d="m680.0 330.63736l0 40.0l-568.0 0l0 -40.0z" fill-rule="evenodd"/><path stroke="#ffffff" stroke-width="1.0" stroke-linejoin="round" stroke-linecap="butt" d="m680.0 330.63736l0 40.0l-568.0 0l0 -40.0z" fill-rule="evenodd"/><path fill="#000000" d="m512.0 66.63735l0 40.0l-112.0 0l0 -40.0z" fill-rule="evenodd"/><path stroke="#000000" stroke-width="1.0" stroke-linejoin="round" stroke-linecap="butt" d="m512.0 66.63735l0 40.0l-112.0 0l0 -40.0z" fill-rule="evenodd"/><path fill="#000000" d="m184.0 66.725296l0 40.0l-109.19685 0l0 -40.0z" fill-rule="evenodd"/><path stroke="#000000" stroke-width="1.0" stroke-linejoin="round" stroke-linecap="butt" d="m184.0 66.725296l0 40.0l-109.19685 0l0 -40.0z" fill-rule="evenodd"/><path fill="#000000" d="m512.0 594.6373l0 40.0l-112.0 0l0 -40.0z" fill-rule="evenodd"/><path stroke="#000000" stroke-width="1.0" stroke-linejoin="round" stroke-linecap="butt" d="m512.0 594.6373l0 40.0l-112.0 0l0 -40.0z" fill-rule="evenodd"/><path fill="#000000" d="m184.0 594.6373l0 40.0l-112.0 0l0 -40.0z" fill-rule="evenodd"/><path stroke="#000000" stroke-width="1.0" stroke-linejoin="round" stroke-linecap="butt" d="m184.0 594.6373l0 40.0l-112.0 0l0 -40.0z" fill-rule="evenodd"/><path fill="#ffffff" d="m150.68132 594.6373l-39.999992 0l0 -487.99997l39.999992 0z" fill-rule="evenodd"/><path stroke="#ffffff" stroke-width="1.0" stroke-linejoin="round" stroke-linecap="butt" d="m150.68132 594.6373l-39.999992 0l0 -487.99997l39.999992 0z" fill-rule="evenodd"/><path fill="#ffffff" d="m478.59338 288.0l-40.0 0l0 -184.0l40.0 0z" fill-rule="evenodd"/><path stroke="#ffffff" stroke-width="1.0" stroke-linejoin="round" stroke-linecap="butt" d="m478.59338 288.0l-40.0 0l0 -184.0l40.0 0z" fill-rule="evenodd"/><path fill="#ffffff" d="m448.0 289.31866l0 -39.999985l184.0 0l0 39.999985z" fill-rule="evenodd"/><path stroke="#ffffff" stroke-width="1.0" stroke-linejoin="round" stroke-linecap="butt" d="m448.0 289.31866l0 -39.999985l184.0 0l0 39.999985z" fill-rule="evenodd"/><path fill="#ffffff" d="m480.0 596.04395l-40.0 0l0 -228.03146l40.0 0z" fill-rule="evenodd"/><path stroke="#ffffff" stroke-width="1.0" stroke-linejoin="round" stroke-linecap="butt" d="m480.0 596.04395l-40.0 0l0 -228.03146l40.0 0z" fill-rule="evenodd"/><path fill="#ffffff" d="m520.0 392.0l-40.0 0l0 -28.031494l40.0 0z" fill-rule="evenodd"/><path stroke="#ffffff" stroke-width="1.0" stroke-linejoin="round" stroke-linecap="butt" d="m520.0 392.0l-40.0 0l0 -28.031494l40.0 0z" fill-rule="evenodd"/><path fill="#000000" d="m747.20844 392.0l0 40.0l-265.88977 0l0 -40.0z" fill-rule="evenodd"/><path stroke="#000000" stroke-width="1.0" stroke-linejoin="round" stroke-linecap="butt" d="m747.20844 392.0l0 40.0l-265.88977 0l0 -40.0z" fill-rule="evenodd"/><path fill="#ffffff" d="m566.6772 192.0l9.322815 0l0 184.0l-9.322815 0z" fill-rule="evenodd"/><path stroke="#ffffff" stroke-width="1.0" stroke-linejoin="round" stroke-linecap="butt" d="m566.6772 192.0l9.322815 0l0 184.0l-9.322815 0z" fill-rule="evenodd"/><path fill="#ffffff" d="m600.0 360.0l9.322815 0l0 184.0l-9.322815 0z" fill-rule="evenodd"/><path stroke="#ffffff" stroke-width="1.0" stroke-linejoin="round" stroke-linecap="butt" d="m600.0 360.0l9.322815 0l0 184.0l-9.322815 0z" fill-rule="evenodd"/><path fill="#ffffff" d="m656.0 376.0l9.322815 0l0 184.0l-9.322815 0z" fill-rule="evenodd"/><path stroke="#ffffff" stroke-width="1.0" stroke-linejoin="round" stroke-linecap="butt" d="m656.0 376.0l9.322815 0l0 184.0l-9.322815 0z" fill-rule="evenodd"/></g></svg>